General
Complete name : Flight 2012 CAM x264 AAC-UNiQUE.mp4
Format : MPEG-4
Format profile : Base Media
Codec ID : isom
File size : 2.22 GiB
Duration : 2h 3mn
Overall bit rate mode : Variable
Overall bit rate : 2 570 Kbps
Encoded date : UTC 2012-11-12 19:14:07

Video
ID : 1
Format : AVC
Format/Info : Advanced Video Codec
Format profile : High@L4.1
Format settings, CABAC : Yes
Format settings, ReFrames : 3 frames
Codec ID : avc1
Codec ID/Info : Advanced Video Coding
Duration : 2h 3mn
Bit rate mode : Variable
Bit rate : 2 471 Kbps
Maximum bit rate : 40.0 Mbps
Width : 640 pixels
Height : 258 pixels
Display aspect ratio : 2.481
Frame rate mode : Constant
Frame rate : 29.970 fps
Color space : YUV
Chroma subsampling : 4:2:0
Bit depth : 8 bits
Scan type : Progressive
Bits/(Pixel*Frame) : 0.499
Stream size : 2.14 GiB (96%)
Writing library : x264 core 129 r2230 1cffe9f

Audio
ID : 2
Format : AAC
Format/Info : Advanced Audio Codec
Format profile : LC
Codec ID : 40
Duration : 2h 3mn
Bit rate mode : Variable
Bit rate : 96.0 Kbps
Maximum bit rate : 102 Kbps
Channel(s) : 2 channels
Channel positions : Front: L R
Sampling rate : 48.0 KHz
Compression mode : Lossy
Stream size : 83.9 MiB (4%)
Language : English
Encoded date : UTC 2012-11-12 19:15:05

Sources : HP - Thanks!

Storyline
An airline pilot saves a flight from crashing, but an investigation into the malfunctions reveals something troubling.

Screens 
 
http://www.shotpix.com/images/87554679811667824691.png 
http://www.shotpix.com/images/76745734749782339519.png 
http://www.shotpix.com/images/24795635160800117753.png 
http://www.shotpix.com/images/72085237967332340112.png 
http://www.shotpix.com/images/17141249021474843849.png